      :::::::::  :::::::::   ::::::::::: ::::::::  ::::    ::: :::::::::: 
     :+:    :+: :+:    :+:      :+:    :+:    :+: :+:+:   :+: :+:         
    +:+    +:+ +:+    +:+      +:+    +:+    +:+ :+:+:+  +:+ +:+          
   +#++:++#+  +#++:++#+       +#+    +#+    +:+ +#+ +:+ +#+ +#++:++#      
  +#+        +#+    +#+      +#+    +#+    +#+ +#+  +#+#+# +#+            
 #+#        #+#    #+#      #+#    #+#    #+# #+#   #+#+# #+#             
###        #########       ###     ########  ###    #### ########## 


General
Format                           : AVI
Format/Info                      : Audio Video Interleave
File size                        : 35.6 MiB
Duration                         : 2mn 56s
Overall bit rate                 : 1 690 Kbps

Video
ID                               : 0
Format                           : MPEG-4 Visual
Format profile                   : Advanced Simple@L5
Format settings, BVOP            : No
Format settings, QPel            : No
Format settings, GMC             : No warppoints
Format settings, Matrix          : Default (MPEG)
Codec ID                         : XVID
Codec ID/Hint                    : XviD
Duration                         : 2mn 56s
Bit rate                         : 1 487 Kbps
Width                            : 640 pixels
Height                           : 480 pixels
Display aspect ratio             : 4:3
Frame rate                       : 29.970 fps
Color space                      : YUV
Chroma subsampling               : 4:2:0
Bit depth                        : 8 bits
Scan type                        : Progressive
Compression mode                 : Lossy
Bits/(Pixel*Frame)               : 0.162
Stream size                      : 31.3 MiB (88%)
Writing library                  : XviD 1.1.2 (UTC 2006-11-01)

Audio
ID                               : 1
Format                           : MPEG Audio
Format version                   : Version 1
Format profile                   : Layer 3
Codec ID                         : 55
Codec ID/Hint                    : MP3
Duration                         : 2mn 56s
Bit rate mode                    : Constant
Bit rate                         : 192 Kbps
Channel(s)                       : 2 channels
Sampling rate                    : 44.1 KHz
Compression mode                 : Lossy
Stream size                      : 4.04 MiB (11%)
Alignment                        : Split accross interleaves
Interleave, duration             : 40 ms (1.20 video frame)
Writing library                  : LAMELAME_MAJOR_VERSI




Screen Shoot
 
http://imagehacks.in/share-55BE_4D0C84EA.html
 
http://www.pbtone.net
